# xmcd
#
# Track frame offsets:
#	150
#	17091
#	33080
#	47619
#	66364
#	84359
#	104431
#	123637
#	140821
#	161686
#	177410
#
# Disc length: 2565 seconds
#
# Revision: 1
# Processed by: cddbd v1.5.2PL0 Copyright (c) Steve Scherf et al.
# Submitted via: audiograbber 1.83.01
#
DISCID=950a030b
DTITLE=Kellie Pickler - Small Town Girl
DYEAR=2006
DGENRE=Country
TTITLE0=Red High Heels`
TTITLE1=Gotta' Keep Moving
TTITLE2=Thing That Never Cross A Man's Mind
TTITLE3=Didn't You Know How Much I Loved You
TTITLE4=I Wonder
TTITLE5=Small Town Girl
TTITLE6=Wild Ponies
TTITLE7=Girls Like Me
TTITLE8=I'm On My Way
TTITLE9=One Of The Guys
TTITLE10=My Angel
EXTD=
EXTT0=
EXTT1=
EXTT2=
EXTT3=
EXTT4=
EXTT5=
EXTT6=
EXTT7=
EXTT8=
EXTT9=
EXTT10=
PLAYORDER=
